# xmcd
#
# Track frame offsets: 
#        150
#        20572
#        38317
#        61607
#        79255
#        95347
#        111560
#        128305
#        146962
#        165232
#        182552
#        197640
#
# Disc length: 2892 seconds
#
# Revision: 0
# Processed by: cddbd v1.5.2PL0 Copyright (c) Steve Scherf et al.
# Submitted via: ExactAudioCopy v0.99pb4
#
DISCID=900b4a0c
DTITLE=Iron Horse - A Boy Named Blue - The Bluegrass Tribute to The Go
DTITLE=o Goo Dolls
DYEAR=2009
DGENRE=Bluegrass
TTITLE0=Better Days
TTITLE1=Slide
TTITLE2=Iris
TTITLE3=Acoustic No. 3
TTITLE4=Sympathy
TTITLE5=Black Balloon
TTITLE6=Name
TTITLE7=Let Love In
TTITLE8=Stay with You
TTITLE9=Broadway
TTITLE10=Here Is Gone
TTITLE11=Without You Here
EXTD=
EXTT0=
EXTT1=
EXTT2=
EXTT3=
EXTT4=
EXTT5=
EXTT6=
EXTT7=
EXTT8=
EXTT9=
EXTT10=
EXTT11=
PLAYORDER=
